<?xml version="1.0" encoding="UTF-8"?>
<svg id="Cities" xmlns="http://www.w3.org/2000/svg" viewBox="0 0 320.3 409.85">
  <path d="M123.25,390.32c-.41-.1-.82-.26-1.19-.46.4.15.8.31,1.19.46Z"/>
  <path d="M95.61,222.41s.05.09.08.13c.05.07.09.14.15.2-.08-.1-.16-.21-.23-.33Z"/>
  <path d="M190.91,237.72c-.31.26-.65.48-1.02.65.34-.22.67-.44,1.02-.65Z"/>
  <path d="M181.29,245.63c-.24.34-.52.65-.85.92.28-.31.56-.62.85-.92Z"/>
  <path d="M115.63,248.34c-3.76,3.8-4.96,5.26-7.98,9.73-.97,1.43-2.55,2.2-4.15,2.2-.96,0-1.94-.27-2.8-.86-2.28-1.54-2.88-4.65-1.34-6.94,3.4-5.02,4.94-6.9,9.16-11.17,1.95-1.96,5.11-1.98,7.08-.03,1.96,1.94,1.98,5.1.03,7.07Z"/>
  <path d="M178.55,16.89c-.9-2.99-2.85-5.33-5.63-6.74-2.47-1.26-5.07-2.14-7.76-2.62v-2.53c0-2.76-2.24-5-5-5s-5,2.24-5,5v2.53c-2.69.48-5.29,1.35-7.75,2.61-2.8,1.42-4.75,3.76-5.64,6.74-.9,3-.57,6.01.97,8.74l.04.07,7.99,14.12h18.78l7.84-13.88.18-.31c.05-.1.11-.2.15-.3,1.42-2.66,1.7-5.57.83-8.43ZM156.6,29.81l-5.15-9.11c-.19-.33-.22-.56-.1-.94.11-.36.25-.53.6-.71,2.55-1.3,5.31-1.96,8.21-1.96s5.66.66,8.21,1.96c.35.18.49.35.6.74.11.35.09.58-.1.91l-5.16,9.11h-7.11Z"/>
  <path d="M320.23,112.53c-.38-2.11-2.06-3.75-4.19-4.07-12.69-1.88-25.61-11.06-38.12-19.95-17.18-12.21-34.94-24.83-52.81-18.12-7.83,2.95-11.06,8.51-13.65,12.99-3,5.2-5.06,8.76-14.35,8.78-.71-1.19-1.48-2.34-2.31-3.45l2.81-2.63c2.02-1.89,2.12-5.05.24-7.07-1.89-2.02-5.05-2.12-7.07-.24l-2.81,2.63c-.39-.34-.8-.67-1.21-1,1.85-5.81,5.63-10.63,10.84-13.76,5.78-3.48,12.75-4.49,18.63-2.72l8.86,2.68c1.7.51,3.55.08,4.85-1.13,1.3-1.22,1.86-3.03,1.47-4.77-2.97-13.03-13.72-21.03-28.05-20.83-16.24.21-34.8,11.02-40.97,31.38-.74-.04-1.48-.06-2.23-.06s-1.5.02-2.24.06c-6.17-20.36-24.72-31.17-40.97-31.38h-.48c-14.09,0-24.63,7.94-27.56,20.83-.4,1.74.16,3.55,1.46,4.77,1.31,1.21,3.15,1.64,4.86,1.13l8.85-2.68c5.89-1.77,12.85-.75,18.64,2.72,5.21,3.13,8.99,7.95,10.84,13.76-.41.33-.82.66-1.21,1l-2.82-2.63c-2.01-1.88-5.18-1.78-7.06.24-1.89,2.02-1.78,5.18.23,7.07l2.82,2.63c-.83,1.11-1.6,2.26-2.31,3.45-9.28-.01-11.35-3.59-14.36-8.78-2.59-4.48-5.81-10.04-13.65-12.99-17.86-6.71-35.63,5.91-52.81,18.12-12.5,8.89-25.43,18.07-38.12,19.95-2.12.32-3.81,1.96-4.19,4.07-.37,2.12.64,4.24,2.53,5.27,24.05,13.14,67.55,19.91,89.68,10.17,6.55,6.65,14.65,9.94,24.5,9.94,2.27,0,4.62-.17,7.07-.52.53.82,1.08,1.62,1.66,2.4l-2.82,2.63c-2.01,1.88-2.12,5.05-.23,7.06.98,1.06,2.31,1.59,3.65,1.59,1.22,0,2.45-.45,3.41-1.35l2.82-2.63c.5.43,1.02.85,1.55,1.25-.01,1.39.02,2.84.13,4.32-.05.01-.1.02-.15.03-4.27.98-8.26,1.9-12.26,2.4l-.37-2.21c-.46-2.73-3.04-4.56-5.77-4.1-2.72.46-4.55,3.03-4.1,5.76l.13.77c-5.78-.56-12.03-2.42-19.49-6.47l-3.18-1.73-44.04,41.35,1.36,3.21c13.55,32.06,13.78,61.83,9.76,99.48-.18,1.64-.36,3.27-.54,4.87-1.69,15.23-3.14,28.38,1.32,39.24,4.71,11.46,15.26,18.44,33.04,21.79,2.02,18.5,17.24,26.91,32.32,32.81.4.15.8.31,1.19.46,2.59.99,5.16,1.92,7.65,2.81,15.09,5.42,24.26,9.25,24.26,16.72h10c0-7.47,9.16-11.3,24.26-16.72,2.7-.97,5.5-1.98,8.3-3.07,15.25-5.91,30.81-14.3,32.85-33.01,17.79-3.35,28.33-10.33,33.05-21.79,4.46-10.86,3-24.01,1.31-39.24-.18-1.6-.36-3.23-.53-4.87-4.02-37.65-3.79-67.42,9.76-99.48l1.36-3.21-44.04-41.35-3.18,1.73c-7.47,4.05-13.72,5.92-19.5,6.47l.13-.77c.46-2.73-1.38-5.31-4.1-5.76-2.72-.46-5.3,1.37-5.76,4.1l-.37,2.21c-4-.51-7.99-1.42-12.26-2.4-.05,0-.11-.02-.16-.04.11-1.47.14-2.91.13-4.3.53-.4,1.05-.83,1.56-1.26l2.81,2.63c.97.9,2.19,1.35,3.42,1.35,1.33,0,2.66-.53,3.65-1.59,1.88-2.01,1.78-5.18-.24-7.06l-2.81-2.63c.58-.78,1.13-1.58,1.66-2.4,2.45.35,4.8.52,7.06.52,9.85,0,17.95-3.29,24.51-9.94,22.13,9.74,65.63,2.96,89.68-10.17,1.88-1.03,2.9-3.15,2.52-5.27ZM97.35,118.63c-1.57-1.96-4.35-2.45-6.49-1.15-13.09,7.93-46.73,5.89-71.5-3.14,9.98-4.28,19.51-11.06,28.83-17.68,15.74-11.19,30.6-21.75,43.49-16.91,4.5,1.69,6.27,4.76,8.52,8.64,3.19,5.52,7.04,12.16,18.71,13.51-1.18,3.91-1.81,8.06-1.81,12.35,0,4.74.77,9.31,2.2,13.58-9.48.66-16.39-2.28-21.95-9.2ZM203.49,49.87c2.88-.04,8.25.41,12.52,3.73-7.78-1.45-16.37.15-23.57,4.47-6.63,3.99-11.6,9.9-14.41,17.01-1.82-.84-3.71-1.55-5.66-2.12,5.16-14.84,19.27-22.94,31.12-23.09ZM155.13,81.57c1.64-.25,3.32-.38,5.03-.38s3.39.13,5.03.38h.01c5.75.89,11.02,3.26,15.4,6.72l-4.7,4.39c-4.42-3.25-9.86-5.16-15.74-5.16s-11.33,1.91-15.75,5.16l-4.7-4.39c4.38-3.45,9.64-5.83,15.4-6.72h.02ZM160.16,147.3c-7.72,0-14.82-2.66-20.45-7.1l4.7-4.39c4.42,3.25,9.86,5.16,15.75,5.16s11.32-1.91,15.74-5.16l4.7,4.39c-5.63,4.45-12.73,7.1-20.44,7.1ZM176.01,154.28c-1.38,9.41-6.41,15.89-15.85,20.74-9.46-4.86-14.48-11.34-15.86-20.75,4.91,1.96,10.26,3.03,15.86,3.03s10.94-1.07,15.85-3.02ZM160.16,97.52c9.22,0,16.72,7.51,16.72,16.73,0,4.41-1.72,8.42-4.51,11.41-3.05,3.27-7.4,5.31-12.21,5.31-9.22,0-16.72-7.5-16.72-16.72s7.5-16.73,16.72-16.73ZM127.87,58.07c-7.19-4.32-15.79-5.92-23.57-4.47,4.27-3.32,9.64-3.79,12.52-3.73,11.85.15,25.96,8.25,31.13,23.09-1.95.57-3.84,1.28-5.66,2.12-2.81-7.11-7.78-13.02-14.42-17.01ZM132.88,132.9c-3.64-5.31-5.78-11.74-5.78-18.65,0-5.35,1.28-10.41,3.54-14.89.67-1.31,1.42-2.57,2.24-3.77l4.7,4.4c-2.62,4.13-4.14,9.02-4.14,14.26s1.52,10.13,4.14,14.26l-4.7,4.39ZM191.85,381.58c-1.87.71-3.8,1.42-5.81,2.14-7.48,2.69-15.09,5.42-20.88,9.3v-16.58h19.39c2.76,0,5-2.24,5-5s-2.24-5-5-5h-5.74l4.97-2.87c2.39-1.38,3.21-4.44,1.83-6.83-1.38-2.39-4.44-3.21-6.83-1.83l-4.97,2.87,2.87-4.97c1.38-2.39.56-5.45-1.83-6.83-2.39-1.38-5.45-.56-6.83,1.83l-2.86,4.96v-5.72c0-2.77-2.24-5-5-5s-5,2.23-5,5v5.73l-2.87-4.97c-1.38-2.39-4.44-3.21-6.83-1.83s-3.21,4.44-1.83,6.83l2.87,4.97-4.97-2.87c-2.39-1.38-5.45-.56-6.83,1.83-1.38,2.39-.56,5.45,1.83,6.83l4.97,2.87h-5.73c-2.76,0-5,2.24-5,5s2.24,5,5,5h19.39v16.58c-5.79-3.88-13.4-6.61-20.88-9.3-2.01-.72-3.95-1.43-5.82-2.14-.84-2.94-1.27-5.98-1.27-9.08,0-18.18,14.79-32.96,32.97-32.96s32.96,14.78,32.96,32.96c0,3.09-.42,6.14-1.27,9.08ZM197.03,164.97l-.24,1.42c-.46,2.72,1.38,5.3,4.1,5.76.28.05.56.07.84.07,2.4,0,4.51-1.73,4.92-4.17l.44-2.58c6.76-.28,14.14-1.97,22.75-6.18l33.78,31.72c-13.08,32.79-13.22,63.21-9.16,101.2.17,1.66.35,3.3.53,4.91,3.25,29.33,5.05,45.48-29.93,50.72l-4.26.64v4.3c0,11.98-6.71,18.64-17.91,24.13.16-1.46.23-2.93.23-4.41,0-23.69-19.27-42.96-42.96-42.96-5.81,0-11.36,1.16-16.42,3.26-3.71-2.83-9.46-6.26-14-8.75l2.51-3.21.02-.03,1.19-1.33c2.71-3.03,4.63-6.7,5.73-10.89,1.38.07,2.77.1,4.17.1,6.32,0,12.77-.65,19-1.84h0c.35,1.49.53,2.91.74,5.19.24,2.59,2.42,4.54,4.97,4.54.15,0,.31-.01.47-.02,2.75-.25,4.77-2.69,4.51-5.44-.26-2.79-.51-4.67-.98-6.65.27-.08.54-.16.81-.24.52,2.47.98,5.03,1.37,7.67.37,2.48,2.5,4.27,4.94,4.27.24,0,.49-.02.74-.05,2.73-.41,4.62-2.95,4.21-5.68-.35-2.4-.76-4.72-1.22-7,6.52,9.41,12.77,16.73,17.97,22.8,6.33,7.41,11.34,13.26,12.48,18.1l9.73-2.3c-1.7-7.2-7.11-13.53-14.61-22.3-5.27-6.16-11.66-13.64-18.23-23.28.52-.32,1.02-.65,1.51-.99l.17.29c.93,1.6,2.61,2.49,4.33,2.49.86,0,1.72-.22,2.51-.67.14-.08.28-.17.41-.27.06-.04.11-.08.17-.12,5.59-4,11.86-7.79,18.71-11.28,1.35,5.49,2.26,10.45,2.8,15.27l9.94-1.12c-.79-7.02-2.27-14.23-4.66-22.67-.4-1.41-1.4-2.58-2.73-3.19-1.34-.61-2.87-.6-4.2.02-5.67,2.66-11.02,5.5-16.01,8.5.91-2.06,1.44-4.18,1.6-6.32.34-4.65,1.37-18.72,6.04-22.21-.35,2.35-1.12,4.35-1.68,5.57-1.82,3.97-.56,8.47,3.07,10.93,3.83,2.61,8.87,2.13,12-1.13,7.78-8.11,11.71-18.68,12.04-32.32l.04-1.97-1.3-1.47c-8.16-9.18-19.27-13.13-31.53-11.28-.33-.78-.72-1.54-1.17-2.29-1.42-2.37-4.49-3.15-6.86-1.73-2.32,1.38-3.11,4.35-1.81,6.71-1.18.46-2.34.98-3.48,1.55-.35-.58-.75-1.16-1.19-1.7-1.73-2.15-4.88-2.48-7.03-.74-2.14,1.74-2.47,4.88-.73,7.03.14.18.29.39.43.64-1.12.84-2.22,1.72-3.29,2.67-.38-.47-.79-.93-1.24-1.36-1.99-1.92-5.16-1.87-7.07.12-1.92,1.99-1.87,5.15.12,7.07.37.36.75.86,1.12,1.46-3.97,4.84-7.24,10.35-9.57,16.29-1.28-1.56-2.62-3.1-4.02-4.63-.79-.86-1.53-1.74-2.23-2.63-.79-1.02-1.53-2.05-2.23-3.09.78.08,1.59.17,2.11.29.8,1.83,2.62,2.97,4.56,2.97.49,0,.98-.07,1.47-.22,2.64-.81,4.13-3.61,3.32-6.25-1.82-5.92-7.34-6.45-11.36-6.83-2.08-.2-4.23-.4-6.51-1.1-.17-.05-.33-.09-.5-.12h0c-2.66-4.22-5.59-7.89-9.84-10.08-.44-.23-.88-.45-1.32-.67.69,0,1.38-.08,2.05-.21,1.14-.23,2.18-.85,2.91-1.76,2.35-2.9,3.25-7.81,3.28-13.18.89-.25,1.78-.49,2.68-.71,2.68-.67,4.32-3.38,3.65-6.06-.66-2.68-3.37-4.32-6.05-3.65-.37.09-.73.18-1.1.29-.26-1.71-.58-3.38-.93-4.95-.34-1.52-1.37-2.8-2.79-3.45-1.41-.65-3.05-.6-4.43.13-5.02,2.67-11.57,8.68-15.52,17.77-3.39,1.85-6.64,3.84-9.72,5.93-1.76-.37-3.51-.67-5.3-.91-.67-3.34-1.19-6.64-1.7-9.85-1.54-9.81-3-19.08-8.39-27.99-1.43-2.37-4.51-3.12-6.87-1.69s-3.12,4.5-1.69,6.86c4.38,7.24,5.63,15.18,7.08,24.38.7,4.45,1.42,9.06,2.57,13.9,0,.03.01.07.02.1.03.14.07.28.12.42.04.13.09.25.13.37.06.14.13.28.21.42.06.12.12.23.2.34,0,.01.01.02.02.03.07.12.15.23.23.33.55.8,1.13,1.57,1.71,2.3-5.04,4.42-9.27,8.95-12.47,13.22-1.66,2.21-1.21,5.34,1,7,.9.68,1.95,1,2.99,1,1.52,0,3.02-.69,4.01-2,2.84-3.78,6.7-7.89,11.35-11.93,3.03,2.71,6.04,4.93,8.73,6.91,3.09,2.28,6.29,4.63,6.94,6.12,1.09,2.47,2.77,5.99,4.96,9.84-1.01.91-1.66,2.22-1.68,3.68-.04,2.76,2.17,5.03,4.93,5.06.28.01.56.01.85.01.51,0,1.02-.01,1.53-.02.23.3.46.6.69.9-.22.01-.44.03-.66.04-2.01.14-3.91.27-5.53.57-12.06,2.24-21.15,8.06-25.46,15.82-9.44-4.2-14.86-1.82-17.8,1.06-5.37,5.28-5.28,15.73.23,26.61l8.92-4.52c-3.71-7.33-3.62-13.5-2.13-14.96.81-.8,3.65-.62,8,1.57-.01.23-.02.46-.02.69-.07,6.65,3.23,14.7,11.67,20.94l-5.43,5.6c-1.1,1.14-1.6,2.73-1.34,4.3,1.24,7.52,1.38,14.88.42,22.48l9.92,1.26c.98-7.73.95-15.23-.09-22.86l5.56-5.74c1.08.45,2.2.88,3.38,1.28l-2.87,3.67c-.93,1.2-1.27,2.76-.92,4.24.36,1.48,1.37,2.72,2.75,3.37,3,1.4,9.43,4.98,14.19,8.07-10.31,7.85-16.98,20.25-16.98,34.18,0,1.48.08,2.95.23,4.4-11.2-5.49-17.9-12.14-17.9-24.12v-4.3l-4.27-.64c-34.97-5.24-33.18-21.39-29.93-50.72.18-1.61.36-3.25.54-4.91,4.06-37.99,3.91-68.41-9.16-101.2l33.78-31.72c8.6,4.21,15.98,5.89,22.74,6.18l.44,2.58c.41,2.44,2.53,4.17,4.93,4.17.27,0,.55-.02.83-.07,2.73-.46,4.56-3.04,4.1-5.76l-.24-1.42c4.28-.58,8.43-1.52,12.64-2.49,2.75,8.25,8.93,16.57,22.15,22.64.66.31,1.38.46,2.09.46s1.42-.15,2.08-.46c13.22-6.07,19.4-14.39,22.15-22.64,4.21.97,8.36,1.91,12.64,2.49ZM131.93,235.45c3.12,1.6,5.6,5.81,8.47,10.68,1.09,1.86,2.24,3.81,3.53,5.8-2.23.67-5.06,1.27-8.2,1.64-2.49-3.95-4.7-8.23-6.48-12.26-1.73-3.91-5.64-6.79-10.16-10.12-1.41-1.04-2.88-2.13-4.36-3.29,5.09,1.71,10.59,4.15,17.2,7.55ZM121.98,219.89c.43-.25.86-.49,1.29-.73.39.63.84,1.23,1.35,1.79-.9-.38-1.77-.73-2.64-1.06ZM132.44,214.66c.26-.12.53-.24.8-.34-.04.31-.09.59-.13.86-.05-.03-.1-.06-.15-.1-.15-.1-.33-.24-.52-.42ZM150.26,260.28s.05.06.08.09c3.48,3.8,6.54,7.64,9.22,11.6-2.58-1.19-5.08-2.11-7.43-2.97l-1.64-.61c-2.7-1-5.39-3.08-7.96-5.82,2.88-.6,5.52-1.38,7.73-2.29ZM140.07,273.82c2.18,1.67,4.49,3.04,6.93,3.94l1.69.63c7.76,2.84,15.09,5.54,21.62,16.18-1.83.58-3.72,1.1-5.65,1.55-.05,0-.1.03-.15.04-7.8,1.86-16.22,2.77-24.23,2.47-.08-4.34-.83-9.01-2.25-13.94-.76-2.65-3.53-4.18-6.18-3.42-2.66.76-4.19,3.53-3.43,6.19,2.72,9.46,2.42,17.66-.75,23.07-15.34-4.01-20.81-12.43-20.74-18.72.07-7.79,7.96-14.29,20.09-16.54,1.05-.19,2.67-.3,4.38-.42,2.73-.19,5.76-.4,8.67-1.03ZM220.82,248.26l-.45-3.27-3.18-.86c-5.62-1.54-9.63.15-12.01,1.83-7.56,5.35-9.44,17.44-10.34,29.77-.09,1.19-.44,2.33-.96,3.41l-.96-1.65c-1.38-2.39-4.44-3.2-6.83-1.82s-3.2,4.44-1.82,6.83l2.48,4.29c-2.08,1.49-4.45,2.86-7.04,4.11-.02-.05-.04-.1-.06-.15-2.71-8.38-6.35-16.01-11.08-23.22h0c.55-.56.97-1.25,1.21-2.04,2.17-7.11,5.91-13.58,10.64-18.92,0,0,.02-.02.02-.02.28-.31.56-.62.85-.92,0,0,.01,0,.01,0,2.61-2.79,5.5-5.23,8.58-7.24,0,0,.01,0,.01,0,.34-.22.67-.44,1.02-.65t.02-.01c3.25-2.01,6.7-3.54,10.26-4.5.56-.16,1.14-.3,1.71-.42,6.45-1.41,15.56-1.38,23.31,6.24-.45,8.16-2.44,14.63-6.15,19.93.96-3.61,1.24-7.29.76-10.7ZM187.43,132.9l-4.69-4.39c2.62-4.13,4.14-9.02,4.14-14.26s-1.52-10.13-4.14-14.26l4.7-4.4c.82,1.2,1.57,2.46,2.24,3.77,2.26,4.48,3.54,9.54,3.54,14.89,0,6.91-2.14,13.34-5.79,18.65ZM229.46,117.48c-2.15-1.3-4.92-.81-6.49,1.15-5.55,6.91-12.47,9.86-21.95,9.2,1.43-4.27,2.2-8.84,2.2-13.58,0-4.29-.63-8.43-1.81-12.34,11.67-1.35,15.51-8.01,18.71-13.52,2.24-3.88,4.02-6.95,8.51-8.64,12.89-4.84,27.76,5.72,43.5,16.91,9.31,6.62,18.85,13.4,28.83,17.68-24.77,9.03-58.42,11.07-71.5,3.14Z"/>
  <g>
    <path d="M203.15,37.75s-.07,0-.1,0h-5.47c-2.76,0-5-2.24-5-5s2.24-5,5-5h.57v-2.79c0-2.76,2.24-5,5-5s5,2.24,5,5v2.79h.57c2.76,0,5,2.24,5,5s-2.24,5-5,5h-5.47s-.07,0-.1,0Z"/>
    <path d="M117.16,37.75s-.07,0-.1,0h-5.47c-2.76,0-5-2.24-5-5s2.24-5,5-5h.57v-2.79c0-2.76,2.24-5,5-5s5,2.24,5,5v2.79h.57c2.76,0,5,2.24,5,5s-2.24,5-5,5h-5.47s-.07,0-.1,0Z"/>
  </g>
</svg>